<svg viewBox="0 0 24 24" fill="none" xmlns="http://www.w3.org/2000/svg">
  <path d="M4 8C4 5.79086 5.79086 4 8 4H16C18.2091 4 20 5.79086 20 8V16C20 18.2091 18.2091 20 16 20H8C5.79086 20 4 18.2091 4 16V8Z" fill="#D1FAE5"/>
  <path d="M9 7C8.44772 7 8 7.44772 8 8V16C8 16.5523 8.44772 17 9 17H15C15.5523 17 16 16.5523 16 16V10.4142C16 10.149 15.8946 9.89464 15.7071 9.70711L13.2929 7.29289C13.1054 7.10536 12.851 7 12.5858 7H9Z" fill="#10B981"/>
  <path d="M13 7V10C13 10.5523 13.4477 11 14 11H16" stroke="#059669" stroke-width="1.5" stroke-linecap="round"/>
</svg> 